<?xml version="1.0" encoding="UTF-8" standalone="no"?>
<svg
   viewBox="0 0 30.022352 24.000252"
   version="1.1"
   id="svg2"
   sodipodi:docname="dir.svg"
   width="30.022352"
   height="24.000252"
   inkscape:version="1.4.3 (0d15f75, 2025-12-25)"
   inkscape:export-filename="directory.pdf"
   inkscape:export-xdpi="96"
   inkscape:export-ydpi="96"
   xmlns:inkscape="http://www.inkscape.org/namespaces/inkscape"
   xmlns:sodipodi="http://sodipodi.sourceforge.net/DTD/sodipodi-0.dtd"
   xmlns="http://www.w3.org/2000/svg"
   xmlns:svg="http://www.w3.org/2000/svg">
  <sodipodi:namedview
     id="namedview2"
     pagecolor="#ffffff"
     bordercolor="#000000"
     borderopacity="0.25"
     inkscape:showpageshadow="2"
     inkscape:pageopacity="0.0"
     inkscape:pagecheckerboard="0"
     inkscape:deskcolor="#d1d1d1"
     inkscape:zoom="10.689466"
     inkscape:cx="-19.130984"
     inkscape:cy="-10.05663"
     inkscape:window-width="2052"
     inkscape:window-height="1211"
     inkscape:window-x="1025"
     inkscape:window-y="558"
     inkscape:window-maximized="0"
     inkscape:current-layer="svg2" />
  <defs
     id="defs1">
    <style
       id="style1">.cls-1{fill:#101820;}</style>
  </defs>
  <title
     id="title1" />
  <g
     data-name="Layer 39"
     id="Layer_39"
     transform="translate(-1,-3.9999987)"
     style="fill:#ffffff">
    <path
       class="cls-1"
       d="M 4,28 A 3,3 0 0 1 1,25 V 7 A 3,3 0 0 1 4,4 h 7 a 1,1 0 0 1 0.77,0.36 L 14.8,8 H 27 a 1,1 0 0 1 0,2 H 14.33 A 1,1 0 0 1 13.57,9.64 L 10.53,6 H 4 A 1,1 0 0 0 3,7 v 18 a 1,1 0 0 0 1,1 1,1 0 0 1 0,2 z"
       id="path1"
       style="fill:#ffffff;fill-opacity:1" />
    <path
       class="cls-1"
       d="M 25.38,28 H 4 A 1,1 0 0 1 3,26.79 l 3,-14 A 1,1 0 0 1 7,12 h 23 a 1,1 0 0 1 1,1.21 L 28.32,25.63 A 3,3 0 0 1 25.38,28 Z M 5.24,26 h 20.14 a 1,1 0 0 0 1,-0.79 L 28.76,14 h -21 z"
       id="path2"
       style="fill:#ffffff;fill-opacity:1" />
  </g>
</svg>
