<?xml version="1.0" encoding="UTF-8" standalone="no"?>
<svg
   viewBox="0 0 28.000017 30.000017"
   version="1.1"
   id="svg2"
   sodipodi:docname="file.svg"
   width="28.000017"
   height="30.000017"
   inkscape:export-filename="file.pdf"
   inkscape:export-xdpi="96"
   inkscape:export-ydpi="96"
   inkscape:version="1.4.3 (0d15f75, 2025-12-25)"
   xmlns:inkscape="http://www.inkscape.org/namespaces/inkscape"
   xmlns:sodipodi="http://sodipodi.sourceforge.net/DTD/sodipodi-0.dtd"
   xmlns="http://www.w3.org/2000/svg"
   xmlns:svg="http://www.w3.org/2000/svg">
  <sodipodi:namedview
     id="namedview2"
     pagecolor="#ffffff"
     bordercolor="#000000"
     borderopacity="0.25"
     inkscape:showpageshadow="2"
     inkscape:pageopacity="0.0"
     inkscape:pagecheckerboard="0"
     inkscape:deskcolor="#d1d1d1"
     inkscape:zoom="60.46875"
     inkscape:cx="13.998966"
     inkscape:cy="15.007752"
     inkscape:window-width="3721"
     inkscape:window-height="2137"
     inkscape:window-x="-8"
     inkscape:window-y="-8"
     inkscape:window-maximized="1"
     inkscape:current-layer="svg2" />
  <defs
     id="defs1">
    <style
       id="style1">.cls-1{fill:#101820;}</style>
  </defs>
  <title
     id="title1" />
  <g
     data-name="Layer 9"
     id="Layer_9"
     style="fill:#ffffff;fill-opacity:1"
     transform="translate(-2,-0.99998329)">
    <path
       class="cls-1"
       d="M 29,31 H 3 A 1,1 0 0 1 2,30 V 2 A 1,1 0 0 1 3,1 h 18 a 1,1 0 0 1 0.71,0.29 l 8,8 A 1,1 0 0 1 30,10 v 20 a 1,1 0 0 1 -1,1 z M 4,29 H 28 V 10.41 L 20.59,3 H 4 Z"
       id="path1"
       style="fill:#ffffff;fill-opacity:1" />
    <path
       class="cls-1"
       d="M 29,11 H 21 A 1,1 0 0 1 20,10 V 2 a 1,1 0 0 1 0.62,-0.92 1,1 0 0 1 1.09,0.21 l 8,8 A 1,1 0 0 1 29.92,10.38 1,1 0 0 1 29,11 Z M 22,9 h 4.59 L 22,4.41 Z"
       id="path2"
       style="fill:#ffffff;fill-opacity:1" />
  </g>
</svg>
